<svg width="20" height="20" viewBox="0 0 20 20" fill="none" xmlns="http://www.w3.org/2000/svg">
<path d="M10.018 0.0751953C4.50609 0.0751953 0.036499 4.62015 0.036499 10.2271C0.036499 14.7125 2.8965 18.518 6.86245 19.8604C7.36129 19.9543 7.54443 19.6401 7.54443 19.372C7.54443 19.1299 7.53518 18.3302 7.53088 17.4819C4.75402 18.096 4.16807 16.2841 4.16807 16.2841C3.71402 15.1106 3.0598 14.7986 3.0598 14.7986C2.15419 14.1685 3.12807 14.1815 3.12807 14.1815C4.13038 14.2529 4.65815 15.2276 4.65815 15.2276C5.5484 16.7797 6.99319 16.331 7.56278 16.0716C7.65237 15.4156 7.91104 14.9674 8.1965 14.7141C5.97947 14.4573 3.6489 13.5868 3.6489 9.69686C3.6489 8.58848 4.03881 7.68285 4.67733 6.9719C4.57369 6.71603 4.23204 5.68364 4.77402 4.28527C4.77402 4.28527 5.6122 4.01242 7.51964 5.3259C8.31584 5.10096 9.16972 4.98816 10.018 4.98429C10.8663 4.98816 11.7208 5.10096 12.5185 5.3259C14.4236 4.01242 15.2606 4.28527 15.2606 4.28527C15.8039 5.68364 15.4621 6.71603 15.3585 6.9719C15.9985 7.68285 16.3858 8.58848 16.3858 9.69686C16.3858 13.5961 14.0507 14.4547 11.8281 14.706C12.1861 15.021 12.5051 15.6388 12.5051 16.586C12.5051 17.9442 12.4935 19.0374 12.4935 19.372C12.4935 19.6421 12.6732 19.9587 13.1791 19.859C17.1429 18.5151 19.9993 14.711 19.9993 10.2271C19.9993 4.62015 15.5304 0.0751953 10.018 0.0751953Z" fill="white"/>
<path d="M3.817 14.6511C3.79502 14.7017 3.717 14.7167 3.64593 14.6821C3.57353 14.6489 3.53287 14.5802 3.55634 14.5296C3.57783 14.4776 3.65601 14.4633 3.72824 14.4978C3.8008 14.5311 3.84212 14.6005 3.817 14.6511Z" fill="white"/>
<path d="M4.22129 15.1096C4.17369 15.1545 4.08063 15.1337 4.01749 15.0627C3.9522 14.9919 3.93997 14.8973 3.98823 14.8517C4.03732 14.8068 4.12757 14.8279 4.19303 14.8986C4.25831 14.9703 4.27104 15.0642 4.22129 15.1096Z" fill="white"/>
<path d="M4.61487 15.6944C4.55371 15.7376 4.45371 15.6971 4.3919 15.6068C4.33074 15.5166 4.33074 15.4083 4.39322 15.3649C4.4552 15.3216 4.55371 15.3606 4.61636 15.4502C4.67735 15.5418 4.67735 15.6502 4.61487 15.6944Z" fill="white"/>
<path d="M5.15399 16.2594C5.09928 16.3207 4.98275 16.3043 4.89746 16.2205C4.81018 16.1387 4.78589 16.0225 4.84076 15.9611C4.89613 15.8996 5.01332 15.9169 5.09928 16C5.18589 16.0817 5.21233 16.1987 5.15399 16.2594Z" fill="white"/>
<path d="M5.89787 16.5875C5.87374 16.667 5.76151 16.7031 5.64845 16.6693C5.53556 16.6345 5.46167 16.5414 5.48448 16.461C5.50795 16.381 5.62068 16.3434 5.73456 16.3795C5.84729 16.4141 5.92134 16.5066 5.89787 16.5875Z" fill="white"/>
<path d="M6.71469 16.6482C6.7175 16.7319 6.62163 16.8013 6.50296 16.8027C6.38362 16.8055 6.28709 16.7378 6.28577 16.6554C6.28577 16.5708 6.37949 16.5021 6.49882 16.5001C6.6175 16.4977 6.71469 16.565 6.71469 16.6482Z" fill="white"/>
<path d="M7.47489 16.5165C7.4891 16.5982 7.40662 16.6821 7.28877 16.7043C7.1729 16.7259 7.06563 16.6755 7.05092 16.5945C7.03654 16.5108 7.12051 16.4269 7.23621 16.4052C7.35423 16.3843 7.45985 16.4334 7.47489 16.5165Z" fill="white"/>
</svg>
