<svg width="84" height="66" viewBox="0 0 84 66" fill="none" xmlns="http://www.w3.org/2000/svg">
<g clip-path="url(#clip0_305_721)">
<path fill-rule="evenodd" clip-rule="evenodd" d="M17.7394 0.507812C13.0035 0.507812 9.49918 4.58185 9.6561 9.00003C9.8067 13.2447 9.61103 18.7422 8.20295 23.2254C6.78984 27.7212 4.40165 30.5701 0.5 30.9358V35.0643C4.40165 35.4308 6.78984 38.2783 8.20279 42.7747C9.61103 47.2579 9.80654 52.7554 9.65594 57C9.49902 61.4176 13.0033 65.4923 17.74 65.4923H66.267C71.0028 65.4923 74.5065 61.4182 74.3496 57C74.199 52.7554 74.3946 47.2579 75.8027 42.7747C77.2158 38.2783 79.5982 35.4296 83.5 35.0643V30.9358C79.5984 30.5693 77.216 27.7218 75.8027 23.2254C74.3945 18.7428 74.199 13.2447 74.3496 9.00003C74.5065 4.58248 71.0028 0.507812 66.267 0.507812H17.7387H17.7394ZM56.7712 40.51C56.7712 46.5936 52.1542 50.2832 44.4921 50.2832H31.4491C31.076 50.2832 30.7182 50.1375 30.4544 49.8782C30.1905 49.6189 30.0423 49.2673 30.0423 48.9006V17.0997C30.0423 16.733 30.1905 16.3813 30.4544 16.122C30.7182 15.8627 31.076 15.717 31.4491 15.717H44.4179C50.8068 15.717 54.9997 19.1184 54.9997 24.3405C54.9997 28.0059 52.179 31.2873 48.5855 31.8621V32.0533C53.4773 32.5807 56.7712 35.9107 56.7712 40.51ZM43.0699 20.1H35.633V30.4245H41.8967C46.7389 30.4245 49.4089 28.5081 49.4089 25.0827C49.4084 21.8725 47.1129 20.1 43.0699 20.1ZM35.633 34.521V45.8988H43.3436C48.3852 45.8988 51.0556 43.9105 51.0556 40.174C51.0556 36.4374 48.3103 34.5204 43.0193 34.5204H35.633V34.521Z" fill="#7952B3"/>
</g>
<defs>
<clipPath id="clip0_305_721">
<rect width="83" height="65" fill="white" transform="translate(0.5 0.5)"/>
</clipPath>
</defs>
</svg>
