<svg width="47" height="66" viewBox="0 0 47 66" fill="none" xmlns="http://www.w3.org/2000/svg">
<g clip-path="url(#clip0_303_480)">
<path d="M23.4719 65.5L4.68634 60.2793L0.5 13.2742H46.5001L42.3093 60.2722L23.4719 65.5Z" fill="#4353AD"/>
<path d="M38.7216 57.2794L42.3025 17.1177H23.4999V61.5039L38.7216 57.2794Z" fill="#485FB5"/>
<path d="M23.5 49.5235L23.4747 49.53L17.0613 47.7964L16.6513 43.1987H10.8704L11.6771 52.2505L23.4735 55.5288L23.5 55.5215V49.5235ZM9.05994 22.8827L9.5834 28.6476H23.5V22.8827H9.05994ZM10.0971 34.551L10.6131 40.316H23.5V34.551H10.0971Z" fill="#EDEDED"/>
<path d="M28.0654 0.500122H35.0403V3.03911H30.9824V3.54715H35.0403V9.38678H28.0654V6.72058H32.1236V6.21294H28.0656L28.0654 0.500122ZM19.6956 0.500122H26.6703V3.03911H22.6124V3.54715H26.6703V9.38678H19.6958V6.72058H23.7538V6.21294H19.6955L19.6956 0.500122ZM11.3259 0.500122H18.3005V3.41994H14.2427V6.34015H18.3009V9.25997H11.3259V0.500122Z" fill="white"/>
<path d="M36.8662 34.5512L37.9057 22.8829H23.4802V28.6477H31.5947L31.0708 34.5512H23.4802V40.3162H30.5715L29.9026 47.7932L23.48 49.5284V55.5261L35.2856 52.2507L35.372 51.2769L36.7257 36.0992L36.8662 34.5512Z" fill="white"/>
</g>
<defs>
<clipPath id="clip0_303_480">
<rect width="46" height="65" fill="white" transform="translate(0.5 0.5)"/>
</clipPath>
</defs>
</svg>
