<svg width="58" height="66" viewBox="0 0 58 66" fill="none" xmlns="http://www.w3.org/2000/svg">
<path d="M12.3425 51.3378C12.3425 46.274 16.4702 42.1689 21.5619 42.1689H30.7812V51.3378C30.7812 56.4015 26.6536 60.5066 21.5619 60.5066C16.4702 60.5066 12.3425 56.4015 12.3425 51.3378Z" fill="#24CB71"/>
<path d="M30.7812 5.49341V23.8311H40.0006C45.0923 23.8311 49.22 19.726 49.22 14.6622C49.22 9.59848 45.0923 5.49341 40.0006 5.49341H30.7812Z" fill="#FF7237"/>
<path d="M39.9237 42.1687C45.0154 42.1687 49.1431 38.0637 49.1431 32.9999C49.1431 27.9361 45.0154 23.8311 39.9237 23.8311C34.832 23.8311 30.7043 27.9361 30.7043 32.9999C30.7043 38.0637 34.832 42.1687 39.9237 42.1687Z" fill="#00B6FF"/>
<path d="M12.3425 14.6622C12.3425 19.726 16.4702 23.8311 21.5619 23.8311H30.7812V5.49341H21.5619C16.4702 5.49341 12.3425 9.59848 12.3425 14.6622Z" fill="#FF3737"/>
<path d="M12.3425 32.9999C12.3425 38.0637 16.4702 42.1687 21.5619 42.1687H30.7812V23.8311H21.5619C16.4702 23.8311 12.3425 27.9361 12.3425 32.9999Z" fill="#874FFF"/>
</svg>
