<svg width="66" height="66" viewBox="0 0 66 66" fill="none" xmlns="http://www.w3.org/2000/svg">
<g clip-path="url(#clip0_305_723)">
<path d="M64.2741 30.1041L35.8945 1.72604C34.2612 0.0916455 31.6104 0.0916455 29.975 1.72604L24.0818 7.6192L31.5576 15.095C33.2948 14.5079 35.2869 14.9017 36.6717 16.2865C38.0631 17.6802 38.4542 19.6894 37.8529 21.4322L45.0575 28.6371C46.8006 28.0366 48.8118 28.425 50.2039 29.8195C52.1496 31.7644 52.1496 34.9167 50.2039 36.8629C48.2577 38.8093 45.1055 38.8093 43.1583 36.8629C41.6948 35.3978 41.3332 33.2485 42.0741 31.4455L35.3552 24.7266L35.3545 42.4079C35.8415 42.6487 36.2864 42.9669 36.6717 43.3499C38.6174 45.2948 38.6174 48.4473 36.6717 50.395C34.7255 52.3405 31.5718 52.3405 29.6284 50.395C27.6827 48.4473 27.6827 45.2951 29.6284 43.3502C30.0947 42.8837 30.6488 42.5142 31.2587 42.2632V24.4171C30.6479 24.1678 30.0934 23.7981 29.6284 23.3302C28.1542 21.858 27.7997 19.695 28.5551 17.8849L21.1857 10.5148L1.72637 29.9729C0.0912109 31.6088 0.0912109 34.2598 1.72637 35.8945L30.1065 64.2731C31.7404 65.9077 34.3906 65.9077 36.0266 64.2731L64.2739 36.0262C65.9085 34.3911 65.9088 31.7385 64.2741 30.1041Z" fill="#DE4C36"/>
</g>
<defs>
<clipPath id="clip0_305_723">
<rect width="65" height="65" fill="white" transform="translate(0.5 0.5)"/>
</clipPath>
</defs>
</svg>
