<svg width="48" height="66" viewBox="0 0 48 66" fill="none" xmlns="http://www.w3.org/2000/svg">
<g clip-path="url(#clip0_301_438)">
<path d="M4.75627 60.699L0.5 12.9706H47.2697L43.0088 60.6915L23.8561 66.0001L4.75627 60.699Z" fill="#E53D20"/>
<path d="M23.8849 61.9424L39.3612 57.6528L43.0023 16.873H23.8849V61.9424Z" fill="#F15123"/>
<path d="M23.8848 34.5749H16.1371L15.6019 28.5806H23.8848V22.7268H23.8646H9.203L9.34321 24.2973L10.7823 40.4284H23.8848V34.5749Z" fill="#EDEDED"/>
<path d="M23.8848 49.7775L23.8592 49.7844L17.3385 48.0239L16.9214 43.3553H13.7529H11.0438L11.8642 52.5465L23.8579 55.8752L23.8848 55.8677V49.7775Z" fill="#EDEDED"/>
<path d="M4.85144 0H7.82698V2.93905H10.5488V0H13.5245V8.90019H10.5489V5.91995H7.82711V8.90019H4.85165L4.85144 0Z" fill="white"/>
<path d="M17.4373 2.95146H14.8177V0H23.0336V2.95146H20.4129V8.90019H17.4375L17.4373 2.95146Z" fill="white"/>
<path d="M24.3375 0H27.4401L29.3486 3.12724L31.2552 0H34.359V8.90019H31.3958V4.48876L29.3486 7.65331H29.2976L27.249 4.48876V8.90019H24.3375V0Z" fill="white"/>
<path d="M35.84 0H38.8163V5.95834H43.0006V8.90019H35.84V0Z" fill="white"/>
<path d="M23.8646 34.575V40.4284H31.0744L30.3949 48.0203L23.8646 49.7825V55.8724L35.8678 52.5465L35.9558 51.5577L37.3318 36.1468L37.4746 34.575H35.8968H23.8646Z" fill="white"/>
<path d="M23.8646 22.7271V28.5807H37.9886H38.0073L38.1248 27.2649L38.3916 24.2974L38.5316 22.7271H23.8646Z" fill="white"/>
</g>
<defs>
<clipPath id="clip0_301_438">
<rect width="47" height="66" fill="white" transform="translate(0.5)"/>
</clipPath>
</defs>
</svg>
