<svg width="52" height="66" viewBox="0 0 52 66" fill="none" xmlns="http://www.w3.org/2000/svg">
<g clip-path="url(#clip0_305_618)">
<path fill-rule="evenodd" clip-rule="evenodd" d="M51.8848 41.3376L51.6518 41.9436C47.6803 49.7037 40.6443 54.4654 30.6078 54.6753C25.916 54.7724 21.4454 53.5644 18.5251 52.2503C12.2225 49.4088 6.92173 44.1388 4.02657 38.5082C-0.126271 30.4364 -0.875087 19.2083 7.7598 10.8217C7.89286 10.8217 6.71249 12.6401 6.84555 12.6401L6.60789 13.4161C0.385444 32.9665 19.556 49.7202 38.1915 47.8043C42.67 47.3438 48.3814 44.8821 51.8848 41.3376Z" fill="#21609B"/>
<path fill-rule="evenodd" clip-rule="evenodd" d="M40.6077 33.2536C45.296 33.2862 50.1931 31.0871 53.093 27.9996C50.556 34.4627 43.2101 38.6171 33.3584 37.2957C25.1102 36.1882 17.2525 27.8581 16.4428 19.5115C15.8509 13.4368 17.9609 9.81127 21.4371 5.4137C20.229 7.71376 19.7775 9.48775 19.6649 10.6192C18.3441 23.7595 30.1244 33.1851 40.6077 33.2536Z" fill="#21609B"/>
<path fill-rule="evenodd" clip-rule="evenodd" d="M52.6225 16.9326C51.8935 18.6103 47.6969 21.7786 45.8439 22.1748C38.5059 23.7432 33.8061 20.2513 31.3448 16.2777C30.9785 15.6836 30.3021 14.0631 30.1809 13.6506C29.2263 10.3931 29.6652 5.46597 32.5131 2.91541C31.6552 5.34043 31.5302 8.15746 31.9815 9.9885C32.2551 11.096 33.0885 13.0286 33.9226 14.2446C35.4407 16.4596 36.4033 16.9978 38.353 18.1738C39.2308 18.7033 40.173 19.1278 40.5801 19.2447C42.4285 19.7903 46.3311 21.2292 52.6225 16.9326Z" fill="#21609B"/>
</g>
<defs>
<clipPath id="clip0_305_618">
<rect width="51" height="65" fill="white" transform="translate(0.5 0.5)"/>
</clipPath>
</defs>
</svg>
