<svg width="66" height="66" viewBox="0 0 66 66" fill="none" xmlns="http://www.w3.org/2000/svg">
<g clip-path="url(#clip0_303_554)">
<path d="M0.5 0.5H65.5V65.5H0.5V0.5Z" fill="#F7DF1E"/>
<path d="M17.5909 54.8188L22.5651 51.8084C23.5247 53.5099 24.3977 54.9495 26.4916 54.9495C28.4988 54.9495 29.7642 54.1643 29.7642 51.1104V30.3413H35.8726V51.1967C35.8726 57.5234 32.1641 60.4031 26.7535 60.4031C21.867 60.4031 19.0307 57.8728 17.5909 54.8188Z" fill="white"/>
<path d="M39.1904 54.1641L44.164 51.2844C45.4733 53.4226 47.175 54.9932 50.1854 54.9932C52.7164 54.9932 54.3303 53.7278 54.3303 51.9825C54.3303 49.8881 52.6724 49.1463 49.8799 47.925L48.3532 47.2701C43.9461 45.3943 41.0227 43.0382 41.0227 38.064C41.0227 33.4826 44.5132 29.9919 49.9674 29.9919C53.8507 29.9919 56.6431 31.3447 58.65 34.8789L53.894 37.933C52.8468 36.057 51.7127 35.3153 49.9675 35.3153C48.1786 35.3153 47.044 36.4497 47.044 37.933C47.044 39.7656 48.1786 40.5075 50.7962 41.642L52.3232 42.2964C57.5154 44.5218 60.4389 46.7904 60.4389 51.8952C60.4389 57.3932 56.1194 60.4035 50.3164 60.4035C44.6443 60.4035 40.979 57.6984 39.1904 54.1641Z" fill="white"/>
</g>
<defs>
<clipPath id="clip0_303_554">
<rect width="65" height="65" fill="white" transform="translate(0.5 0.5)"/>
</clipPath>
</defs>
</svg>
