<svg width="72" height="66" viewBox="0 0 72 66" fill="none" xmlns="http://www.w3.org/2000/svg">
<g clip-path="url(#clip0_305_725)">
<rect width="72" height="65" transform="translate(0 0.5)" fill="#1D2939"/>
<path d="M0.212158 32.9294C0.212158 38.3596 5.4891 43.4288 13.8087 46.2861C12.1474 54.6903 13.5109 61.4639 18.0655 64.1034C22.7471 66.8162 29.7216 64.9383 36.3413 59.124C42.7939 64.7036 49.3155 66.8995 53.8658 64.2525C58.5429 61.5319 59.9655 54.2988 58.2582 45.6323C66.9235 42.7536 71.7706 38.431 71.7706 32.9294C71.7706 27.6252 66.4838 23.0363 58.2765 20.1972C60.1145 11.1726 58.5571 4.5633 53.814 1.81488C49.2412 -0.834769 42.6439 1.47467 36.0963 7.20042C29.2847 1.12299 22.7525 -0.732518 18.014 2.02391C13.4456 4.68109 12.142 11.5779 13.8087 20.1376C5.77002 22.9539 0.212158 27.6464 0.212158 32.9294Z" fill="#1D2939"/>
<path d="M56.5381 23.0166C55.8789 22.7885 55.1958 22.5728 54.4924 22.3688C54.608 21.8947 54.7141 21.4267 54.8084 20.9667C56.357 13.4133 55.3445 7.32827 51.887 5.32481C48.5718 3.40376 43.1499 5.40677 37.674 10.1953C37.1475 10.6557 36.6194 11.1432 36.0916 11.6541C35.7399 11.3161 35.3888 10.9894 35.0386 10.677C29.2998 5.5568 23.5474 3.3991 20.0934 5.40836C16.7813 7.33498 15.8004 13.0555 17.1944 20.2139C17.329 20.9053 17.4863 21.6114 17.6643 22.3293C16.8501 22.5616 16.0642 22.8091 15.3122 23.0725C8.58403 25.4296 4.28711 29.1237 4.28711 32.9554C4.28711 36.9129 8.89986 40.8823 15.9078 43.2892C16.4608 43.4791 17.0346 43.6587 17.626 43.8292C17.4341 44.6057 17.2671 45.3665 17.1269 46.1086C15.7978 53.1428 16.8358 58.7282 20.1391 60.6427C23.5511 62.6198 29.2774 60.5875 34.8533 55.6899C35.294 55.3028 35.7363 54.8922 36.1794 54.4619C36.7537 55.0176 37.3271 55.5435 37.8974 56.0368C43.2984 60.707 48.6327 62.5928 51.933 60.673C55.3416 58.6902 56.4493 52.6902 55.0112 45.3902C54.9013 44.8326 54.7735 44.2631 54.6299 43.6834C55.0321 43.5639 55.4269 43.4406 55.8118 43.3124C63.0972 40.8869 67.8373 36.9658 67.8373 32.9554C67.8373 29.1098 63.4018 25.3908 56.5381 23.0166Z" fill="#53C1DE"/>
<path d="M54.9579 40.7229C54.6104 40.8385 54.2538 40.9502 53.8905 41.0586C53.0862 38.5001 52.0008 35.7795 50.6724 32.9687C51.94 30.2248 52.9835 27.539 53.7653 24.9971C54.4154 25.1861 55.0464 25.3855 55.6544 25.5959C61.5352 27.6302 65.1224 30.6379 65.1224 32.9554C65.1224 35.424 61.2483 38.6285 54.9579 40.7229ZM52.3478 45.9199C52.9837 49.1479 53.0746 52.0663 52.6533 54.3478C52.2748 56.3979 51.5137 57.7647 50.5725 58.3121C48.5698 59.477 44.2868 57.9628 39.6679 53.9689C39.1384 53.511 38.605 53.0222 38.07 52.5048C39.8606 50.5369 41.6503 48.2491 43.3969 45.7084C46.4691 45.4344 49.3716 44.9866 52.0038 44.3752C52.1334 44.9007 52.2486 45.416 52.3478 45.9199ZM25.9527 58.1108C23.996 58.8052 22.4375 58.8251 21.4955 58.2793C19.4909 57.1175 18.6576 52.633 19.7943 46.6174C19.9245 45.9284 20.0795 45.2208 20.2581 44.4974C22.8614 45.0758 25.7426 45.4921 28.8222 45.7429C30.5806 48.2291 32.422 50.5144 34.2776 52.5153C33.8721 52.9086 33.4683 53.283 33.0667 53.6358C30.6011 55.8015 28.1302 57.338 25.9527 58.1108ZM16.7857 40.7078C13.6869 39.6436 11.1278 38.2604 9.37369 36.751C7.7975 35.3946 7.00171 34.048 7.00171 32.9554C7.00171 30.6301 10.4517 27.6643 16.2057 25.6484C16.9039 25.4038 17.6348 25.1733 18.3932 24.9568C19.1884 27.5561 20.2316 30.2737 21.4905 33.0218C20.2153 35.8107 19.1573 38.5716 18.3543 41.2013C17.8136 41.0452 17.2897 40.8808 16.7857 40.7078ZM19.8586 19.69C18.6642 13.5568 19.4574 8.93022 21.4534 7.76925C23.5795 6.53246 28.2808 8.29586 33.2358 12.7169C33.5526 12.9994 33.8706 13.2952 34.1894 13.6012C32.343 15.5934 30.5185 17.8615 28.7757 20.333C25.7869 20.6114 22.9259 21.0585 20.2954 21.6573C20.13 20.9888 19.9835 20.3321 19.8586 19.69ZM47.2713 26.4916C46.6424 25.4002 45.9969 24.3346 45.3387 23.2981C47.3664 23.5556 49.3091 23.8975 51.1335 24.3159C50.5857 26.0798 49.9031 27.924 49.0995 29.8146C48.523 28.7149 47.9133 27.6061 47.2713 26.4916ZM36.0924 15.5508C37.3446 16.9139 38.5987 18.4359 39.8321 20.0872C38.5892 20.0283 37.3308 19.9976 36.0621 19.9976C34.8054 19.9976 33.5563 20.0276 32.3211 20.0855C33.5557 18.4496 34.8206 16.9296 36.0924 15.5508ZM24.842 26.5105C24.2138 27.6049 23.6154 28.7077 23.048 29.8125C22.2575 27.9285 21.5811 26.0759 21.0286 24.2871C22.8418 23.8793 24.7754 23.546 26.7901 23.2933C26.1227 24.3393 25.4718 25.4131 24.842 26.5105ZM26.8481 42.8121C24.7665 42.5787 22.8039 42.2625 20.9912 41.866C21.5525 40.0452 22.2438 38.1531 23.0511 36.2285C23.62 37.3325 24.2207 38.4357 24.8527 39.5326C25.4965 40.6501 26.1636 41.7447 26.8481 42.8121ZM36.1675 50.5523C34.8808 49.1573 33.5974 47.6142 32.3439 45.9543C33.5607 46.0023 34.8013 46.0269 36.0621 46.0269C37.3574 46.0269 38.6379 45.9975 39.8983 45.9412C38.6608 47.6309 37.4113 49.1764 36.1675 50.5523ZM49.1254 36.1304C49.9748 38.0758 50.6908 39.9581 51.2594 41.7478C49.4168 42.1702 47.4274 42.5104 45.3313 42.7632C45.991 41.7127 46.6422 40.6288 47.2821 39.5139C47.9295 38.3858 48.5442 37.2561 49.1254 36.1304ZM44.9305 38.151C43.9371 39.8818 42.9172 41.534 41.8818 43.0936C39.996 43.2291 38.0478 43.2989 36.0621 43.2989C34.0845 43.2989 32.1608 43.2372 30.3083 43.1164C29.2312 41.5363 28.1892 39.8792 27.2021 38.1659C26.2177 36.4573 25.3118 34.7342 24.4908 33.0209C25.3115 31.3035 26.2152 29.5785 27.1941 27.873C28.1756 26.1629 29.2081 24.5142 30.2753 22.944C32.1653 22.8004 34.1034 22.7255 36.062 22.7255C38.0295 22.7255 39.9701 22.801 41.8596 22.9458C42.9104 24.5045 43.9363 26.1482 44.9216 27.8585C45.918 29.5881 46.8334 31.3016 47.6612 32.9821C46.8359 34.6915 45.9225 36.4223 44.9305 38.151ZM50.5309 7.68809C52.659 8.92124 53.4866 13.8945 52.1495 20.4161C52.0642 20.8322 51.9682 21.2561 51.8639 21.6856C49.2273 21.0743 46.3643 20.6194 43.3667 20.3369C41.6205 17.8382 39.811 15.5666 37.9946 13.5999C38.483 13.1279 38.9706 12.6778 39.4562 12.253C44.1479 8.15025 48.533 6.53041 50.5309 7.68809Z" fill="#1D2939"/>
<path d="M36.0623 27.2532C39.1964 27.2532 41.7371 29.8061 41.7371 32.9554C41.7371 36.1046 39.1964 38.6576 36.0623 38.6576C32.9282 38.6576 30.3875 36.1046 30.3875 32.9554C30.3875 29.8061 32.9282 27.2532 36.0623 27.2532Z" fill="#53C1DE"/>
</g>
<defs>
<clipPath id="clip0_305_725">
<rect width="72" height="65" fill="white" transform="translate(0 0.5)"/>
</clipPath>
</defs>
</svg>
