<svg width="66" height="66" viewBox="0 0 66 66" fill="none" xmlns="http://www.w3.org/2000/svg">
<g clip-path="url(#clip0_309_441)">
<mask id="mask0_309_441" style="mask-type:luminance" maskUnits="userSpaceOnUse" x="0" y="0" width="66" height="66">
<path d="M65.5 0.5H0.5V65.5H65.5V0.5Z" fill="white"/>
</mask>
<g mask="url(#mask0_309_441)">
<path d="M45.5382 45.2433C40.9679 54.587 32.9648 60.8738 22.3769 62.9406C20.7535 63.3383 19.0869 63.5328 17.4155 63.5195C11.3218 63.5195 5.73586 60.9804 3.02415 56.8214C-0.616874 51.2812 -1.85594 39.5355 10.1487 30.8468C10.3925 32.1722 10.8902 33.9902 11.2203 35.0668C8.86368 36.8175 6.93469 39.0799 5.57844 41.6836C3.34406 46.0711 3.5929 50.4535 6.2386 54.5058C8.06671 57.2379 10.9612 58.8984 14.6835 59.4062C19.3327 59.9946 24.0493 59.1064 28.1659 56.8672C34.6203 53.475 38.9214 49.4226 41.7347 43.8824C40.9392 43.0603 40.4684 41.9779 40.4093 40.8355C40.3668 39.6095 40.8123 38.4169 41.6482 37.5191C42.4841 36.6213 43.6421 36.0918 44.8679 36.0468H45.0405C46.2329 36.0408 47.3819 36.4934 48.2498 37.311C49.1177 38.1286 49.6381 39.2485 49.7034 40.439C49.7686 41.6296 49.3736 42.7997 48.6003 43.7071C47.8269 44.6146 46.7342 45.1901 45.5484 45.3144L45.5382 45.2433ZM60.0972 34.9855C66.2977 42.0136 66.4654 50.2859 64.0683 55.0847C61.8339 59.4672 55.9433 63.8547 48.0214 63.8547C44.3233 63.7792 40.6854 62.9044 37.3573 61.2902C38.5203 60.4625 40.1706 59.137 41.0796 58.3093C43.646 59.4212 46.4079 60.0115 49.2046 60.0461C54.3335 60.0461 58.2183 57.6492 60.5339 53.2668C62.0218 50.3722 62.1081 46.98 60.7015 43.5066C58.9755 39.1363 55.9041 35.4282 51.9316 32.9187C46.7197 29.4054 40.5756 27.5324 34.2902 27.541H32.8023C32.4553 28.3424 31.8909 29.0307 31.1729 29.5279C30.4549 30.0252 29.6121 30.3114 28.7398 30.3543H28.5823C27.3759 30.3394 26.2227 29.8549 25.3678 29.0034C24.5128 28.1521 24.0234 27.0009 24.0036 25.7944C23.9838 24.588 24.4351 23.4214 25.2616 22.5424C26.088 21.6634 27.2247 21.1412 28.43 21.0867H28.5976C29.4375 21.0873 30.2611 21.3194 30.9777 21.7575C31.6944 22.1955 32.2765 22.8226 32.6601 23.5699H33.9855C44.548 23.5699 53.8206 27.6222 60.0972 34.9855ZM18.0757 46.6652C17.9888 45.8219 18.1931 44.9743 18.6546 44.2632C14.0234 36.2398 11.5452 26.0683 15.3487 15.4804C18.0757 7.52301 24.9414 2.14526 32.3859 2.14526C40.328 2.14526 48.6003 9.09724 49.5905 22.4933C48.3515 22.082 46.5437 21.4777 45.457 21.2543C45.1878 16.8718 41.4859 5.95386 32.7159 6.11636C29.5726 6.20269 24.9414 7.69058 22.5597 10.7476C19.6137 14.3968 17.8999 18.8858 17.6644 23.5699C17.1061 29.9925 18.613 36.4257 21.9655 41.9324C22.1507 41.8648 22.3479 41.8371 22.5445 41.8511H22.707C23.9352 41.8289 25.1221 42.2955 26.0063 43.1483C26.8905 44.0011 27.3998 45.1703 27.422 46.3986C27.4442 47.6269 26.9776 48.8137 26.1248 49.6979C25.272 50.5821 24.1028 51.0914 22.8746 51.1136H22.707C21.5086 51.1093 20.3583 50.6428 19.4955 49.8113C18.6327 48.9797 18.1241 47.8473 18.0757 46.65V46.6652Z" fill="#764ABC"/>
</g>
</g>
<defs>
<clipPath id="clip0_309_441">
<rect width="65" height="65" fill="white" transform="translate(0.5 0.5)"/>
</clipPath>
</defs>
</svg>
