<svg width="88" height="66" viewBox="0 0 88 66" fill="none" xmlns="http://www.w3.org/2000/svg">
<g clip-path="url(#clip0_305_655)">
<path d="M75.3677 37.8412C72.3261 37.8583 69.6923 38.586 67.4833 39.6695C66.6677 38.0614 65.8521 36.6563 65.7163 35.607C65.5634 34.3882 65.3765 33.6433 65.5634 32.1877C65.7501 30.7318 66.5997 28.6667 66.5997 28.4974C66.5826 28.3451 66.4127 27.6003 64.6626 27.5834C62.9126 27.5665 61.4001 27.9219 61.2302 28.379C61.0603 28.836 60.7204 29.8855 60.4995 30.9688C60.1937 32.5599 56.9991 38.1967 55.181 41.1589C54.5863 40.0079 54.0765 38.9922 53.9744 38.1796C53.8216 36.961 53.6345 36.216 53.8216 34.7605C54.0085 33.3046 54.8581 31.2396 54.8581 31.0704C54.8411 30.918 54.6712 30.1732 52.9212 30.1563C51.1708 30.1394 49.6587 30.4948 49.4888 30.9519C49.3189 31.4089 49.1319 32.4922 48.7581 33.5417C48.4011 34.5912 44.1531 44.0027 43.0486 46.4571C42.4878 47.7097 41.9952 48.7084 41.6382 49.3855C41.2814 50.0625 41.6212 49.4362 41.5872 49.504C41.2814 50.0795 41.1115 50.4011 41.1115 50.4011V50.4182C40.8736 50.8414 40.6187 51.2474 40.4996 51.2474C40.4146 51.2474 40.2447 50.1133 40.5336 48.5562C41.1623 45.2891 42.6916 40.1942 42.6747 40.008C42.6747 39.9234 42.9634 39.0261 41.689 38.5692C40.4486 38.1122 40.007 38.8739 39.9048 38.8739C39.8029 38.8739 39.7179 39.1447 39.7179 39.1447C39.7179 39.1447 41.0943 33.4066 37.0841 33.4066C34.5693 33.4066 31.1029 36.1319 29.3867 38.6202C28.2992 39.2126 25.9882 40.4651 23.5414 41.8025C22.6068 42.3103 21.6382 42.8519 20.7207 43.3428L20.5339 43.1394C15.6741 37.9766 6.68528 34.3204 7.05911 27.3803C7.19504 24.8581 8.07864 18.2058 24.3233 10.1485C37.6282 3.54692 48.2823 5.35812 50.1343 9.38676C52.7681 15.142 44.4419 25.8399 30.6105 27.3803C25.3429 27.9727 22.573 25.9415 21.8765 25.1797C21.1458 24.3842 21.0438 24.3503 20.772 24.5026C20.3302 24.7396 20.6021 25.4506 20.772 25.8737C21.1798 26.9401 22.879 28.836 25.7677 29.7839C28.2993 30.6133 34.4847 31.0704 41.9612 28.1928C50.3384 24.9597 56.8804 15.9883 54.9603 8.48963C53.0062 0.855513 40.296 -1.6497 28.2825 2.599C21.1286 5.13806 13.3802 9.099 7.80676 14.2956C1.17981 20.4571 0.126295 25.8399 0.568091 28.0743C2.11455 36.0469 13.1423 41.2435 17.5603 45.086C17.3394 45.2043 17.1355 45.3228 16.9486 45.4245C14.7396 46.5077 6.32844 50.892 4.22141 55.5298C1.84251 60.7772 4.59524 64.5521 6.4304 65.0599C12.1058 66.6342 17.9171 63.8073 21.0607 59.1524C24.1871 54.4974 23.8134 48.4545 22.3691 45.6954L22.3179 45.5938L24.0511 44.5782C25.1728 43.918 26.2773 43.3086 27.2457 42.7837C26.7021 44.2564 26.3111 45.9999 26.1074 48.5389C25.8695 51.5183 27.0929 55.3775 28.7072 56.9009C29.4208 57.5609 30.2704 57.578 30.7972 57.578C32.6663 57.578 33.5159 56.0375 34.4505 54.1926C35.606 51.9413 36.6255 49.3345 36.6255 49.3345C36.6255 49.3345 35.3511 56.3931 38.8345 56.3931C40.1089 56.3931 41.3833 54.7512 41.9611 53.9048V53.9218C41.9611 53.9218 41.995 53.871 42.063 53.7525C42.1343 53.6475 42.2023 53.5403 42.2669 53.431V53.3972C42.7767 52.517 43.9152 50.5027 45.6144 47.168C47.8062 42.8685 49.9134 37.4857 49.9134 37.4857C49.9134 37.4857 50.1173 38.806 50.746 40.9727C51.1197 42.2593 51.9353 43.6641 52.564 45.0352C52.0543 45.7461 51.7484 46.1526 51.7484 46.1526L51.7654 46.1695C51.3577 46.7112 50.8988 47.2868 50.4232 47.8622C48.69 49.9273 46.6169 52.2803 46.345 52.9574C46.0222 53.7528 46.0902 54.3453 46.7189 54.8194C47.1777 55.1579 47.9933 55.2255 48.8599 55.1579C50.4232 55.0562 51.5107 54.6671 52.0544 54.4299C52.904 54.1252 53.8726 53.6682 54.8072 52.9911C56.5064 51.7387 57.5429 49.9613 57.4409 47.5915C57.39 46.2881 56.9652 45.0017 56.4384 43.7829C56.5913 43.5629 56.7444 43.3427 56.8972 43.1059C59.582 39.1955 61.655 34.8962 61.655 34.8962C61.655 34.8962 61.8589 36.2165 62.4876 38.3832C62.8103 39.4835 63.4562 40.6854 64.0339 41.8703C61.5191 43.9185 59.9388 46.2883 59.3951 47.8456C58.3925 50.7232 59.1742 52.0266 60.6525 52.3313C61.315 52.4667 62.2667 52.162 62.9802 51.8573C63.8638 51.5696 64.9343 51.0785 65.9201 50.3508C67.6193 49.0982 69.2505 47.3547 69.1656 45.0019C69.1146 43.9185 68.8257 42.8521 68.4349 41.8365C70.5759 40.9563 73.3455 40.4485 76.863 40.8716C84.4245 41.7519 85.9199 46.4576 85.6312 48.4211C85.3423 50.3848 83.762 51.468 83.2351 51.8065C82.7083 52.1282 82.5384 52.2468 82.5894 52.4836C82.6574 52.8393 82.8952 52.8222 83.354 52.7546C83.9827 52.6529 87.3302 51.1466 87.4661 47.5243C87.6701 42.8687 83.2351 37.7906 75.3677 37.8412ZM17.0505 57.4258C14.5527 60.1511 11.0353 61.1836 9.53997 60.3034C7.92571 59.3724 8.55425 55.3607 11.63 52.4662C13.4991 50.7058 15.929 49.0808 17.5263 48.0821C17.8831 47.862 18.4269 47.5406 19.0726 47.1511C19.1745 47.0835 19.2425 47.0495 19.2425 47.0495C19.3615 46.9818 19.4974 46.8972 19.6333 46.8125C20.7718 50.9428 19.6843 54.5652 17.0505 57.4258ZM35.3171 45.0521C34.4505 47.168 32.6154 52.6016 31.5109 52.2969C30.5591 52.043 29.9816 47.9297 31.3238 43.8672C32.0035 41.8189 33.4478 39.3816 34.2974 38.4335C35.674 36.91 37.1691 36.4022 37.5431 37.0285C37.9849 37.8412 35.8609 43.7318 35.3171 45.0521ZM50.3892 52.2292C50.0154 52.4156 49.6755 52.5508 49.5226 52.4494C49.4036 52.3817 49.6753 52.1278 49.6753 52.1278C49.6753 52.1278 51.5615 50.1135 52.3091 49.1825C52.7339 48.641 53.2437 48.0147 53.7875 47.3036V47.5067C53.7876 49.9441 51.4427 51.5691 50.3892 52.2292ZM62.0117 49.5886C61.7398 49.3855 61.774 48.7592 62.6914 46.7956C63.0484 46.017 63.8638 44.7136 65.2742 43.4779C65.4441 43.9857 65.5462 44.4764 65.5291 44.9336C65.5122 47.9805 63.3372 49.1146 62.0117 49.5886Z" fill="#CF649A"/>
</g>
<defs>
<clipPath id="clip0_305_655">
<rect width="87" height="65" fill="white" transform="translate(0.5 0.5)"/>
</clipPath>
</defs>
</svg>
