<svg width="84" height="50" viewBox="0 0 84 50" fill="none" xmlns="http://www.w3.org/2000/svg">
<g clip-path="url(#clip0_309_447)">
<mask id="mask0_309_447" style="mask-type:luminance" maskUnits="userSpaceOnUse" x="0" y="0" width="84" height="50">
<path d="M84 0H0V50H84V0Z" fill="white"/>
</mask>
<g mask="url(#mask0_309_447)">
<path d="M42 0C30.8 0 23.8 5.54112 21 16.6234C25.2 11.0822 30.1 9.00433 35.7 10.3896C38.8951 11.18 41.1788 13.4736 43.7066 16.0125C47.8245 20.1483 52.5904 24.9351 63 24.9351C74.2 24.9351 81.2 19.3939 84 8.31169C79.8 13.8528 74.9 15.9307 69.3 14.5454C66.1049 13.7551 63.8212 11.4615 61.2934 8.92258C57.1755 4.78677 52.4096 0 42 0ZM21 24.9351C9.80003 24.9351 2.8 30.4762 0 41.5584C4.2 36.0173 9.09997 33.9394 14.7 35.3247C17.8951 36.1151 20.1788 38.4086 22.7066 40.9475C26.8245 45.0833 31.5904 49.8702 42 49.8702C53.2 49.8702 60.2 44.329 63 33.2467C58.8 38.7879 53.9 40.8658 48.3 39.4805C45.1049 38.6902 42.8212 36.3966 40.2934 33.8577C36.1755 29.7218 31.4096 24.9351 21 24.9351Z" fill="url(#paint0_linear_309_447)"/>
</g>
</g>
<defs>
<linearGradient id="paint0_linear_309_447" x1="-597.333" y1="2457.6" x2="19937.9" y2="9655.86" gradientUnits="userSpaceOnUse">
<stop stop-color="#2298BD"/>
<stop offset="1" stop-color="#0ED7B5"/>
</linearGradient>
<clipPath id="clip0_309_447">
<rect width="84" height="50" fill="white"/>
</clipPath>
</defs>
</svg>
