<svg width="66" height="66" viewBox="0 0 66 66" fill="none" xmlns="http://www.w3.org/2000/svg">
<path d="M0.5 33V65.5H33H65.5V33V0.5H33H0.5V33Z" fill="#007ACC"/>
<path d="M14.8739 33.2157L14.8533 35.8776H19.0835H23.3136L23.3136 47.8974V59.9172H26.3057H29.2977V47.8974L29.2977 35.8776H33.5279H37.7581V33.2672C37.7581 31.8228 37.7271 30.6157 37.6858 30.5847C37.6549 30.5434 32.5065 30.5228 26.2644 30.5331L14.9049 30.5641L14.8739 33.2157Z" fill="white"/>
<path d="M52.9486 30.4885C54.5994 30.9012 55.8582 31.6337 57.0137 32.8305C57.6121 33.4702 58.4994 34.6361 58.5717 34.9147C58.5923 34.9972 55.7653 36.8956 54.0526 37.9583C53.9907 37.9996 53.7431 37.7313 53.4645 37.3186C52.6288 36.1012 51.7518 35.575 50.4106 35.4821C48.4399 35.348 47.1709 36.3797 47.1812 38.1028C47.1812 38.6083 47.2534 38.9075 47.4598 39.3202C47.8931 40.2178 48.6979 40.7543 51.2256 41.848C55.8788 43.8496 57.8701 45.1702 59.1082 47.048C60.4907 49.1424 60.8002 52.4853 59.8613 54.9718C58.8296 57.675 56.2709 59.5115 52.6701 60.1202C51.5558 60.3163 48.9145 60.2853 47.7177 60.0686C45.1074 59.6043 42.6312 58.3147 41.1042 56.6226C40.5058 55.9623 39.3399 54.2393 39.4121 54.1155C39.4431 54.0742 39.7113 53.9091 40.0106 53.7337C40.2994 53.5686 41.3931 52.9393 42.4248 52.3409L44.2923 51.2575L44.6844 51.8353C45.2312 52.671 46.428 53.8163 47.1502 54.198C49.224 55.2917 52.0717 55.1369 53.4748 53.8782C54.0732 53.3313 54.3209 52.7639 54.3209 51.9282C54.3209 51.175 54.228 50.8448 53.8359 50.2774C53.3304 49.5551 52.2986 48.9464 49.3685 47.6774C46.0153 46.2329 44.5709 45.3353 43.2502 43.9115C42.4867 43.0861 41.7645 41.7655 41.4653 40.6615C41.2177 39.7432 41.1558 37.4424 41.3518 36.5139C42.0431 33.2742 44.4883 31.0147 48.0169 30.344C49.1621 30.1274 51.824 30.2099 52.9486 30.4885Z" fill="white"/>
</svg>
