<svg width="30" height="28" viewBox="0 0 30 28" fill="none" xmlns="http://www.w3.org/2000/svg">
<path d="M9.135 13.445H2.1C2.22 6.44 3.6 5.285 7.905 2.735C8.4 2.435 8.565 1.805 8.265 1.295C7.98 0.800003 7.335 0.635003 6.84 0.935003C1.77 3.935 0 5.765 0 14.48V22.565C0 25.13 2.085 27.2 4.635 27.2H9.135C11.775 27.2 13.77 25.205 13.77 22.565V18.065C13.77 15.44 11.775 13.445 9.135 13.445Z" fill="#344054"/>
<path d="M25.365 13.445H18.33C18.45 6.44 19.83 5.285 24.135 2.735C24.63 2.435 24.795 1.805 24.495 1.295C24.195 0.800003 23.565 0.635003 23.055 0.935003C17.985 3.935 16.215 5.765 16.215 14.495V22.58C16.215 25.145 18.3 27.215 20.85 27.215H25.35C27.99 27.215 29.985 25.22 29.985 22.58V18.08C30 15.44 28.005 13.445 25.365 13.445Z" fill="#344054"/>
</svg>
