<svg width="159" height="46" viewBox="0 0 159 46" fill="none" xmlns="http://www.w3.org/2000/svg">
<rect width="46" height="46" rx="23" fill="#FD853A"/>
<path d="M22.175 23C23.1917 23.2167 24.0083 23.725 24.625 24.525C25.2417 25.3083 25.55 26.2083 25.55 27.225C25.55 28.6917 25.0333 29.8583 24 30.725C22.9833 31.575 21.5583 32 19.725 32H11.55V14.45H19.45C21.2333 14.45 22.625 14.8583 23.625 15.675C24.6417 16.4917 25.15 17.6 25.15 19C25.15 20.0333 24.875 20.8917 24.325 21.575C23.7917 22.2583 23.075 22.7333 22.175 23ZM15.825 21.55H18.625C19.325 21.55 19.8583 21.4 20.225 21.1C20.6083 20.7833 20.8 20.325 20.8 19.725C20.8 19.125 20.6083 18.6667 20.225 18.35C19.8583 18.0333 19.325 17.875 18.625 17.875H15.825V21.55ZM18.975 28.55C19.6917 28.55 20.2417 28.3917 20.625 28.075C21.025 27.7417 21.225 27.2667 21.225 26.65C21.225 26.0333 21.0167 25.55 20.6 25.2C20.2 24.85 19.6417 24.675 18.925 24.675H15.825V28.55H18.975ZM35.3295 14.45L29.2545 26.2V32H24.9795V26.2L18.9045 14.45H23.7545L27.1545 21.8L30.5295 14.45H35.3295Z" fill="white"/>
<path d="M61.825 14.45V32H57.55V14.45H61.825ZM71.273 32.175C69.9897 32.175 68.8397 31.9667 67.823 31.55C66.8064 31.1333 65.9897 30.5167 65.373 29.7C64.773 28.8833 64.4564 27.9 64.423 26.75H68.973C69.0397 27.4 69.2647 27.9 69.648 28.25C70.0314 28.5833 70.5314 28.75 71.148 28.75C71.7814 28.75 72.2814 28.6083 72.648 28.325C73.0147 28.025 73.198 27.6167 73.198 27.1C73.198 26.6667 73.048 26.3083 72.748 26.025C72.4647 25.7417 72.1064 25.5083 71.673 25.325C71.2564 25.1417 70.6564 24.9333 69.873 24.7C68.7397 24.35 67.8147 24 67.098 23.65C66.3814 23.3 65.7647 22.7833 65.248 22.1C64.7314 21.4167 64.473 20.525 64.473 19.425C64.473 17.7917 65.0647 16.5167 66.248 15.6C67.4314 14.6667 68.973 14.2 70.873 14.2C72.8064 14.2 74.3647 14.6667 75.548 15.6C76.7314 16.5167 77.3647 17.8 77.448 19.45H72.823C72.7897 18.8833 72.5814 18.4417 72.198 18.125C71.8147 17.7917 71.323 17.625 70.723 17.625C70.2064 17.625 69.7897 17.7667 69.473 18.05C69.1564 18.3167 68.998 18.7083 68.998 19.225C68.998 19.7917 69.2647 20.2333 69.798 20.55C70.3314 20.8667 71.1647 21.2083 72.298 21.575C73.4314 21.9583 74.348 22.325 75.048 22.675C75.7647 23.025 76.3814 23.5333 76.898 24.2C77.4147 24.8667 77.673 25.725 77.673 26.775C77.673 27.775 77.4147 28.6833 76.898 29.5C76.398 30.3167 75.6647 30.9667 74.698 31.45C73.7314 31.9333 72.5897 32.175 71.273 32.175ZM92.9289 14.45V17.875H88.2789V32H84.0039V17.875H79.3539V14.45H92.9289ZM99.3494 17.875V21.425H105.074V24.725H99.3494V28.575H105.824V32H95.0744V14.45H105.824V17.875H99.3494ZM139.958 14.45L133.883 26.2V32H129.608V26.2L123.533 14.45H128.383L131.783 21.8L135.158 14.45H139.958ZM152.606 28.9H146.056L145.006 32H140.531L146.881 14.45H151.831L158.181 32H153.656L152.606 28.9ZM151.506 25.6L149.331 19.175L147.181 25.6H151.506Z" fill="#FD853A"/>
<mask id="path-4-inside-1_623_194" fill="white">
<path d="M118.5 32L114.85 25.375H113.825V32H109.55V14.45H116.725C118.108 14.45 119.283 14.6917 120.25 15.175C121.233 15.6583 121.967 16.325 122.45 17.175C122.933 18.0083 123.175 18.9417 123.175 19.975C123.175 21.1417 122.842 22.1833 122.175 23.1C121.525 24.0167 120.558 24.6667 119.275 25.05L123.325 32H118.5ZM113.825 22.35H116.475C117.258 22.35 117.842 22.1583 118.225 21.775C118.625 21.3917 118.825 20.85 118.825 20.15C118.825 19.4833 118.625 18.9583 118.225 18.575C117.842 18.1917 117.258 18 116.475 18H113.825V22.35Z"/>
</mask>
<path d="M118.5 32L117.624 32.4826L117.909 33H118.5V32ZM114.85 25.375L115.726 24.8924L115.441 24.375H114.85V25.375ZM113.825 25.375V24.375H112.825V25.375H113.825ZM113.825 32V33H114.825V32H113.825ZM109.55 32H108.55V33H109.55V32ZM109.55 14.45V13.45H108.55V14.45H109.55ZM120.25 15.175L119.803 16.0694L119.809 16.0724L120.25 15.175ZM122.45 17.175L121.581 17.6693L121.585 17.6767L122.45 17.175ZM122.175 23.1L121.366 22.5118L121.359 22.5216L122.175 23.1ZM119.275 25.05L118.989 24.0918L117.771 24.4555L118.411 25.5535L119.275 25.05ZM123.325 32V33H125.065L124.189 31.4965L123.325 32ZM113.825 22.35H112.825V23.35H113.825V22.35ZM118.225 21.775L117.533 21.053L117.525 21.0604L117.518 21.0679L118.225 21.775ZM118.225 18.575L117.518 19.2821L117.525 19.2896L117.533 19.297L118.225 18.575ZM113.825 18V17H112.825V18H113.825ZM118.5 32L119.376 31.5174L115.726 24.8924L114.85 25.375L113.974 25.8576L117.624 32.4826L118.5 32ZM114.85 25.375V24.375H113.825V25.375V26.375H114.85V25.375ZM113.825 25.375H112.825V32H113.825H114.825V25.375H113.825ZM113.825 32V31H109.55V32V33H113.825V32ZM109.55 32H110.55V14.45H109.55H108.55V32H109.55ZM109.55 14.45V15.45H116.725V14.45V13.45H109.55V14.45ZM116.725 14.45V15.45C117.995 15.45 119.008 15.6722 119.803 16.0694L120.25 15.175L120.697 14.2806C119.558 13.7111 118.221 13.45 116.725 13.45V14.45ZM120.25 15.175L119.809 16.0724C120.635 16.4784 121.208 17.0142 121.581 17.6693L122.45 17.175L123.319 16.6807C122.725 15.6358 121.832 14.8382 120.691 14.2776L120.25 15.175ZM122.45 17.175L121.585 17.6767C121.973 18.3466 122.175 19.1046 122.175 19.975H123.175H124.175C124.175 18.7787 123.893 17.6701 123.315 16.6733L122.45 17.175ZM123.175 19.975H122.175C122.175 20.937 121.905 21.7714 121.366 22.5118L122.175 23.1L122.984 23.6882C123.779 22.5953 124.175 21.3464 124.175 19.975H123.175ZM122.175 23.1L121.359 22.5216C120.862 23.2229 120.101 23.7597 118.989 24.0918L119.275 25.05L119.561 26.0082C121.016 25.5736 122.188 24.8104 122.991 23.6784L122.175 23.1ZM119.275 25.05L118.411 25.5535L122.461 32.5035L123.325 32L124.189 31.4965L120.139 24.5465L119.275 25.05ZM123.325 32V31H118.5V32V33H123.325V32ZM113.825 22.35V23.35H116.475V22.35V21.35H113.825V22.35ZM116.475 22.35V23.35C117.405 23.35 118.291 23.1227 118.932 22.4821L118.225 21.775L117.518 21.0679C117.392 21.194 117.111 21.35 116.475 21.35V22.35ZM118.225 21.775L118.917 22.497C119.563 21.8782 119.825 21.0465 119.825 20.15H118.825H117.825C117.825 20.6535 117.687 20.9052 117.533 21.053L118.225 21.775ZM118.825 20.15H119.825C119.825 19.2704 119.553 18.4626 118.917 17.853L118.225 18.575L117.533 19.297C117.697 19.4541 117.825 19.6963 117.825 20.15H118.825ZM118.225 18.575L118.932 17.8679C118.291 17.2273 117.405 17 116.475 17V18V19C117.111 19 117.392 19.156 117.518 19.2821L118.225 18.575ZM116.475 18V17H113.825V18V19H116.475V18ZM113.825 18H112.825V22.35H113.825H114.825V18H113.825Z" fill="url(#paint0_linear_623_194)" mask="url(#path-4-inside-1_623_194)"/>
<defs>
<linearGradient id="paint0_linear_623_194" x1="116.5" y1="4" x2="116.5" y2="42" gradientUnits="userSpaceOnUse">
<stop stop-color="#F8BA2B"/>
<stop offset="0.7" stop-color="#FF7F00"/>
</linearGradient>
</defs>
</svg>
