<svg width="46" height="46" viewBox="0 0 46 46" fill="none" xmlns="http://www.w3.org/2000/svg">
<rect width="46" height="46" rx="23" fill="#FD853A"/>
<path d="M22.175 23C23.1917 23.2167 24.0083 23.725 24.625 24.525C25.2417 25.3083 25.55 26.2083 25.55 27.225C25.55 28.6917 25.0333 29.8583 24 30.725C22.9833 31.575 21.5583 32 19.725 32H11.55V14.45H19.45C21.2333 14.45 22.625 14.8583 23.625 15.675C24.6417 16.4917 25.15 17.6 25.15 19C25.15 20.0333 24.875 20.8917 24.325 21.575C23.7917 22.2583 23.075 22.7333 22.175 23ZM15.825 21.55H18.625C19.325 21.55 19.8583 21.4 20.225 21.1C20.6083 20.7833 20.8 20.325 20.8 19.725C20.8 19.125 20.6083 18.6667 20.225 18.35C19.8583 18.0333 19.325 17.875 18.625 17.875H15.825V21.55ZM18.975 28.55C19.6917 28.55 20.2417 28.3917 20.625 28.075C21.025 27.7417 21.225 27.2667 21.225 26.65C21.225 26.0333 21.0167 25.55 20.6 25.2C20.2 24.85 19.6417 24.675 18.925 24.675H15.825V28.55H18.975ZM35.3295 14.45L29.2545 26.2V32H24.9795V26.2L18.9045 14.45H23.7545L27.1545 21.8L30.5295 14.45H35.3295Z" fill="white"/>
</svg>
