<svg width="57" height="58" viewBox="0 0 57 58" fill="none" xmlns="http://www.w3.org/2000/svg">
<path d="M46.2279 26.4066V24.8431C46.2279 24.6092 46.2279 24.4922 46.2265 24.3933C46.1194 16.9159 40.0838 10.8803 32.6064 10.7732C32.5075 10.7718 32.3905 10.7718 32.1566 10.7718H30.5931M56 28.361V25.6249C56 23.2904 56 22.1232 55.9119 21.1392C54.958 10.4854 46.5146 2.04196 35.8608 1.08809C34.8769 1 33.7095 0.999997 31.3751 1L28.639 1M19.7331 20.9646C18.4804 23.8384 19.1144 27.1861 21.3312 29.4029L27.9557 36.0274C30.1725 38.2441 33.5202 38.8781 36.394 37.6254C39.2678 36.3727 42.6156 37.0067 44.8323 39.2235L48.8626 43.2538C49.0579 43.449 49.1555 43.5467 49.2345 43.6327C51.1777 45.7475 51.1777 48.9981 49.2345 51.1129C49.1555 51.1989 49.0579 51.2965 48.8626 51.4918L46.4129 53.9415C44.4179 55.9365 41.542 56.7739 38.7879 56.1619C20.0223 51.9918 5.36678 37.3362 1.19665 18.5706C0.58463 15.8165 1.42209 12.9407 3.41704 10.9457L5.86678 8.49596C6.06204 8.30071 6.15967 8.20308 6.24567 8.12405C8.36047 6.18083 11.6111 6.18083 13.7259 8.12405C13.8119 8.20308 13.9095 8.30071 14.1048 8.49596L18.1351 12.5262C20.3518 14.743 20.9858 18.0907 19.7331 20.9646Z" stroke="#FAFAFA" stroke-width="1.5" stroke-linecap="round"/>
</svg>
