<svg width="57" height="57" viewBox="0 0 57 57" fill="none" xmlns="http://www.w3.org/2000/svg">
<path d="M52.9538 39.2566L53.5916 39.6512L52.9538 39.2566ZM52.3095 40.379L51.6123 40.1026L52.3095 40.379ZM52.357 42.6678L53.083 42.4794L52.357 42.6678ZM52.1245 41.6019L52.8723 41.5441L52.1245 41.6019ZM42.7203 52.2924L42.5323 53.0185L42.7203 52.2924ZM41.6521 52.0602L41.7094 51.3124L41.6521 52.0602ZM39.306 52.8905L39.7016 53.5278L39.306 52.8905ZM40.4241 52.2471L40.7013 52.944L40.4241 52.2471ZM49.1552 53.3824L49.0058 52.6474L49.1552 53.3824ZM53.4483 49.0947L52.7134 48.9449L53.4483 49.0947ZM17.1106 32.8211C16.6964 32.8211 16.3606 33.1569 16.3606 33.5711C16.3606 33.9854 16.6964 34.3211 17.1106 34.3211V32.8211ZM39.1126 34.3211C39.5268 34.3211 39.8626 33.9854 39.8626 33.5711C39.8626 33.1569 39.5268 32.8211 39.1126 32.8211V34.3211ZM28.1116 21.834C27.6974 21.834 27.3616 22.1698 27.3616 22.584C27.3616 22.9982 27.6974 23.334 28.1116 23.334V21.834ZM39.1126 23.334C39.5268 23.334 39.8626 22.9982 39.8626 22.584C39.8626 22.1698 39.5268 21.834 39.1126 21.834V23.334ZM9.5853 47.36C-0.861767 36.9261 -0.861767 20.0098 9.5853 9.57584L8.52531 8.51451C-2.50844 19.5344 -2.50844 37.4015 8.52531 48.4214L9.5853 47.36ZM9.5853 9.57584C20.0329 -0.858613 36.9722 -0.858613 47.4197 9.57584L48.4797 8.51451C37.4465 -2.50484 19.5585 -2.50484 8.52531 8.51451L9.5853 9.57584ZM38.9105 52.2533C33.7489 55.457 28.0274 55.8311 22.7711 54.5973C17.5038 53.361 12.7466 50.5174 9.5853 47.36L8.52531 48.4214C11.8777 51.7695 16.881 54.7556 22.4283 56.0577C27.9866 57.3623 34.1336 56.9837 39.7016 53.5278L38.9105 52.2533ZM47.4197 9.57584C50.4457 12.598 53.2888 17.3428 54.5572 22.6382C55.823 27.923 55.5097 33.7006 52.316 38.8619L53.5916 39.6512C57.0431 34.0731 57.3515 27.8649 56.0159 22.2888C54.6829 16.7233 51.7014 11.7321 48.4797 8.51451L47.4197 9.57584ZM52.316 38.8619C51.9675 39.4252 51.7331 39.7979 51.6123 40.1026L53.0067 40.6554C53.0651 40.5082 53.2005 40.2832 53.5916 39.6512L52.316 38.8619ZM53.083 42.4794C52.9325 41.8995 52.8846 41.7035 52.8723 41.5441L51.3768 41.6598C51.4019 41.9849 51.4966 42.338 51.631 42.8562L53.083 42.4794ZM51.6123 40.1026C51.399 40.6407 51.3321 41.0827 51.3768 41.6598L52.8723 41.5441C52.8452 41.1947 52.8775 40.9813 53.0067 40.6554L51.6123 40.1026ZM42.9082 51.5663C42.3891 51.4319 42.0356 51.3374 41.7094 51.3124L41.5948 52.8081C41.7553 52.8204 41.9517 52.8682 42.5323 53.0185L42.9082 51.5663ZM39.7016 53.5278C40.3299 53.1378 40.5533 53.0029 40.7013 52.944L40.1469 51.5502C39.8414 51.6718 39.4706 51.9057 38.9105 52.2533L39.7016 53.5278ZM41.7094 51.3124C41.1316 51.2682 40.6853 51.3361 40.1469 51.5502L40.7013 52.944C41.0274 52.8143 41.2448 52.7812 41.5948 52.8081L41.7094 51.3124ZM42.5323 53.0185C44.2516 53.4635 45.5777 53.8072 46.6289 54.0052C47.6766 54.2025 48.5365 54.2735 49.3046 54.1173L49.0058 52.6474C48.5279 52.7445 47.8999 52.7182 46.9065 52.5311C45.9166 52.3447 44.6482 52.0168 42.9082 51.5663L42.5323 53.0185ZM51.631 42.8562C52.082 44.594 52.4104 45.8607 52.597 46.8493C52.7843 47.8413 52.8106 48.4681 52.7134 48.9449L54.1832 49.2444C54.3396 48.4767 54.2686 47.6175 54.071 46.571C53.8727 45.521 53.5286 44.1965 53.083 42.4794L51.631 42.8562ZM49.3046 54.1173C51.7618 53.6179 53.6829 51.6997 54.1832 49.2444L52.7134 48.9449C52.3335 50.8096 50.8741 52.2676 49.0058 52.6474L49.3046 54.1173ZM17.1106 34.3211H39.1126V32.8211H17.1106V34.3211ZM28.1116 23.334L39.1126 23.334V21.834L28.1116 21.834V23.334Z" fill="#FAFAFA"/>
</svg>
