<svg width="57" height="52" viewBox="0 0 57 52" fill="none" xmlns="http://www.w3.org/2000/svg">
<path d="M13.1522 38.7031L13.6031 38.1037L13.1522 38.7031ZM6.15408 22.0422L5.42474 22.217L6.15408 22.0422ZM12.6935 38.3413L13.1713 37.7631L12.6935 38.3413ZM54.5992 23.2937L53.8698 23.1189L54.5992 23.2937ZM49.169 37.612L48.6436 37.0768L49.169 37.612ZM47.0032 39.3201L46.6051 38.6844L47.0032 39.3201ZM54.4026 13.1279L54.9173 12.5824L54.4026 13.1279ZM55.325 14.2975L54.6746 14.6709L55.325 14.2975ZM1.72761 0.818098C1.62715 0.416252 1.21994 0.171932 0.818098 0.272393C0.416252 0.372855 0.171932 0.780055 0.272393 1.1819L1.72761 0.818098ZM39.2504 32.3503C39.6646 32.3503 40.0004 32.0145 40.0004 31.6003C40.0004 31.1861 39.6646 30.8503 39.2504 30.8503V32.3503ZM23.9502 30.8503C23.536 30.8503 23.2002 31.1861 23.2002 31.6003C23.2002 32.0145 23.536 32.3503 23.9502 32.3503V30.8503ZM3.68424 12.4869H45.4849V10.9869H3.68424V12.4869ZM31.8136 40.5135H30.5266V42.0135H31.8136V40.5135ZM6.88343 21.8674L4.41358 11.5621L2.95489 11.9117L5.42474 22.217L6.88343 21.8674ZM30.5266 40.5135C25.8522 40.5135 22.4107 40.5124 19.7101 40.1985C17.0285 39.8868 15.1592 39.2741 13.6031 38.1037L12.7014 39.3024C14.5495 40.6925 16.7108 41.36 19.5369 41.6885C22.3441 42.0147 25.8876 42.0135 30.5266 42.0135V40.5135ZM5.42474 22.217C6.50594 26.7282 7.33068 30.1744 8.30221 32.8282C9.28031 35.5 10.4332 37.4461 12.2157 38.9194L13.1713 37.7631C11.6704 36.5226 10.6389 34.8477 9.71079 32.3125C8.77613 29.7595 7.97288 26.413 6.88343 21.8674L5.42474 22.217ZM13.6031 38.1037C13.4566 37.9935 13.3126 37.8799 13.1713 37.7631L12.2157 38.9194C12.3746 39.0507 12.5366 39.1785 12.7014 39.3024L13.6031 38.1037ZM53.8698 23.1189C52.9274 27.0513 52.2326 29.9462 51.4519 32.1816C50.6761 34.4027 49.8371 35.9052 48.6436 37.0768L49.6944 38.1472C51.1144 36.7532 52.0515 35.0141 52.868 32.6762C53.6795 30.3527 54.3931 27.3713 55.3285 23.4685L53.8698 23.1189ZM31.8136 42.0135C35.8269 42.0135 38.8925 42.0144 41.3412 41.7668C43.805 41.5177 45.7147 41.0117 47.4012 39.9558L46.6051 38.6844C45.1876 39.5719 43.531 40.0377 41.1903 40.2744C38.8345 40.5127 35.8574 40.5135 31.8136 40.5135V42.0135ZM48.6436 37.0768C48.0243 37.6848 47.3408 38.2238 46.6051 38.6844L47.4012 39.9558C48.2287 39.4376 48.9977 38.8312 49.6944 38.1472L48.6436 37.0768ZM45.4849 12.4869C47.9857 12.4869 49.7924 12.4883 51.1611 12.6553C52.5175 12.8208 53.3196 13.1371 53.8878 13.6733L54.9173 12.5824C54.0117 11.7277 52.8362 11.3485 51.3428 11.1663C49.8619 10.9856 47.9467 10.9869 45.4849 10.9869V12.4869ZM55.3285 23.4685C55.9023 21.0745 56.3499 19.2124 56.5194 17.7301C56.6902 16.2354 56.5955 15.0039 55.9754 13.924L54.6746 14.6709C55.0636 15.3485 55.1843 16.2022 55.0291 17.5598C54.8725 18.9298 54.4527 20.687 53.8698 23.1189L55.3285 23.4685ZM53.8878 13.6733C54.1975 13.9656 54.4626 14.3017 54.6746 14.6709L55.9754 13.924C55.6903 13.4274 55.3338 12.9754 54.9173 12.5824L53.8878 13.6733ZM4.41184 11.555L1.72761 0.818098L0.272393 1.1819L2.95663 11.9188L4.41184 11.555ZM39.2504 30.8503H23.9502V32.3503H39.2504V30.8503Z" fill="#FAFAFA"/>
<path d="M25.1581 49.3161C25.1581 50.7985 23.9564 52.0003 22.4739 52.0003C20.9914 52.0003 19.7897 50.7985 19.7897 49.3161C19.7897 47.8336 20.9914 46.6318 22.4739 46.6318C23.9564 46.6318 25.1581 47.8336 25.1581 49.3161Z" fill="#FAFAFA"/>
<path d="M41.2636 49.3161C41.2636 50.7985 40.0618 52.0003 38.5793 52.0003C37.0969 52.0003 35.8951 50.7985 35.8951 49.3161C35.8951 47.8336 37.0969 46.6318 38.5793 46.6318C40.0618 46.6318 41.2636 47.8336 41.2636 49.3161Z" fill="#FAFAFA"/>
</svg>
