<svg width="45" height="58" viewBox="0 0 45 58" fill="none" xmlns="http://www.w3.org/2000/svg">
<path d="M8.75763 23.6555C8.75763 22.2652 9.88466 21.1382 11.2749 21.1382H16.3095C17.6998 21.1382 18.8268 22.2652 18.8268 23.6555V28.6901C18.8268 30.0803 17.6998 31.2073 16.3095 31.2073H11.2749C9.88466 31.2073 8.75763 30.0803 8.75763 28.6901V23.6555Z" fill="#FAFAFA"/>
<path d="M15.3109 56.2793L15.216 57.0233L15.3109 56.2793ZM4.17144 43.9652L3.43164 44.0885L4.17144 43.9652ZM4.84922 47.4169L5.56748 47.2011L4.84922 47.4169ZM33.4827 43.9652L32.743 43.8419L33.4827 43.9652ZM32.805 47.4169L32.0867 47.2011L32.805 47.4169ZM22.3433 56.2793L22.4382 57.0233L22.3433 56.2793ZM27.929 11.6633L28.1567 10.9487L27.929 11.6633ZM35.6547 30.9335L34.9149 30.8102L35.6547 30.9335ZM36.565 21.8578L37.3073 21.7506L36.565 21.8578ZM9.72519 11.6633L9.49748 10.9487L9.72519 11.6633ZM1.99949 30.9335L2.73928 30.8102L1.99949 30.9335ZM1.08919 21.8578L0.34688 21.7506L1.08919 21.8578ZM13.0425 28.6902C13.0425 29.1044 13.3783 29.4402 13.7925 29.4402C14.2067 29.4402 14.5425 29.1044 14.5425 28.6902H13.0425ZM13.7925 13.5865H14.5425H13.7925ZM18.1563 6.36999C18.3415 6.74048 18.792 6.89064 19.1625 6.7054C19.533 6.52016 19.6832 6.06966 19.4979 5.69917L18.1563 6.36999ZM18.6942 5.76882L19.365 5.43341V5.43341L18.6942 5.76882ZM18.6942 1.26576L18.0234 0.930348V0.930349L18.6942 1.26576ZM19.4979 1.33541C19.6832 0.964928 19.533 0.514423 19.1625 0.32918C18.792 0.143938 18.3415 0.294105 18.1563 0.664589L19.4979 1.33541ZM8.08711 5.69917C7.90187 6.06966 8.05203 6.52016 8.42252 6.7054C8.793 6.89064 9.24351 6.74048 9.42875 6.36999L8.08711 5.69917ZM8.89081 5.76883L8.21999 5.43341V5.43342L8.89081 5.76883ZM8.89081 1.26576L8.21999 1.60117V1.60117L8.89081 1.26576ZM9.42875 0.66459C9.24351 0.294106 8.793 0.143938 8.42252 0.32918C8.05203 0.514421 7.90187 0.964926 8.08711 1.33541L9.42875 0.66459ZM28.2254 5.69917C28.0402 6.06965 28.1904 6.52016 28.5608 6.7054C28.9313 6.89064 29.3818 6.74048 29.5671 6.37L28.2254 5.69917ZM29.0291 5.76883L29.7 6.10424L29.7 6.10424L29.0291 5.76883ZM29.0291 1.26576L28.3583 1.60116L28.3583 1.60117L29.0291 1.26576ZM29.5671 0.664591C29.3818 0.294107 28.9313 0.143938 28.5608 0.329179C28.1904 0.51442 28.0402 0.964925 28.2254 1.33541L29.5671 0.664591ZM13.7925 11.1164L13.7659 10.3669L13.7925 11.1164ZM4.91123 43.8419L2.73928 30.8102L1.25969 31.0568L3.43164 44.0885L4.91123 43.8419ZM18.8271 55.6304C16.9896 55.6304 16.1397 55.6289 15.4057 55.5353L15.216 57.0233C16.0677 57.1319 17.0334 57.1304 18.8271 57.1304V55.6304ZM3.43164 44.0885C3.72652 45.8578 3.88381 46.8105 4.13097 47.6328L5.56748 47.2011C5.35451 46.4925 5.21332 45.6544 4.91123 43.8419L3.43164 44.0885ZM15.4057 55.5353C10.7682 54.944 6.91321 51.6783 5.56748 47.2011L4.13097 47.6328C5.64724 52.6775 9.99075 56.357 15.216 57.0233L15.4057 55.5353ZM32.743 43.8419C32.4409 45.6544 32.2997 46.4925 32.0867 47.2011L33.5232 47.6328C33.7704 46.8105 33.9277 45.8578 34.2225 44.0885L32.743 43.8419ZM18.8271 57.1304C20.6208 57.1304 21.5864 57.1319 22.4382 57.0233L22.2484 55.5353C21.5145 55.6289 20.6646 55.6304 18.8271 55.6304V57.1304ZM32.0867 47.2011C30.741 51.6783 26.886 54.944 22.2484 55.5353L22.4382 57.0233C27.6634 56.357 32.007 52.6775 33.5232 47.6328L32.0867 47.2011ZM18.8271 11.8192C23.7128 11.8192 25.9766 11.8283 27.7013 12.3779L28.1567 10.9487C26.1524 10.31 23.5913 10.3192 18.8271 10.3192V11.8192ZM27.7013 12.3779C32.0211 13.7544 35.1751 17.4775 35.8227 21.9649L37.3073 21.7506C36.5776 16.6946 33.024 12.4997 28.1567 10.9487L27.7013 12.3779ZM2.73928 30.8102C1.93608 25.991 1.57293 23.7565 1.8315 21.9649L0.34688 21.7506C0.0463991 23.8327 0.476465 26.3574 1.25969 31.0568L2.73928 30.8102ZM9.49748 10.9487C4.63023 12.4997 1.07657 16.6946 0.34688 21.7506L1.8315 21.9649C2.47912 17.4775 5.63309 13.7544 9.9529 12.3779L9.49748 10.9487ZM43.25 33.7248C43.25 37.4813 40.2047 40.5267 36.4481 40.5267V42.0267C41.0331 42.0267 44.75 38.3098 44.75 33.7248H43.25ZM36.4481 26.9229C40.2047 26.9229 43.25 29.9682 43.25 33.7248H44.75C44.75 29.1398 41.0331 25.4229 36.4481 25.4229V26.9229ZM14.5425 28.6902L14.5425 13.5865H13.0425L13.0425 28.6902H14.5425ZM19.4979 5.69917L19.365 5.43341L18.0234 6.10423L18.1563 6.36999L19.4979 5.69917ZM19.365 1.60117L19.4979 1.33541L18.1563 0.664589L18.0234 0.930348L19.365 1.60117ZM19.365 5.43341C18.7619 4.22719 18.7619 2.8074 19.365 1.60117L18.0234 0.930349C17.2091 2.55887 17.2091 4.47572 18.0234 6.10423L19.365 5.43341ZM9.42875 6.36999L9.56163 6.10424L8.21999 5.43342L8.08711 5.69917L9.42875 6.36999ZM9.56163 0.930346L9.42875 0.66459L8.08711 1.33541L8.21999 1.60117L9.56163 0.930346ZM9.56163 6.10424C10.3759 4.47572 10.3759 2.55887 9.56163 0.930346L8.21999 1.60117C8.8231 2.80739 8.8231 4.22719 8.21999 5.43341L9.56163 6.10424ZM29.5671 6.37L29.7 6.10424L28.3583 5.43341L28.2254 5.69917L29.5671 6.37ZM29.7 0.930347L29.5671 0.664591L28.2254 1.33541L28.3583 1.60116L29.7 0.930347ZM29.7 6.10424C30.5142 4.47572 30.5142 2.55887 29.7 0.930346L28.3583 1.60117C28.9614 2.80739 28.9614 4.22719 28.3583 5.43341L29.7 6.10424ZM36.3945 31.0568C36.7168 29.1232 36.9762 27.5668 37.1507 26.2732L35.6642 26.0726C35.4935 27.338 35.2386 28.8682 34.9149 30.8102L36.3945 31.0568ZM37.1507 26.2732C37.4042 24.3941 37.4884 23.0056 37.3073 21.7506L35.8227 21.9649C35.973 23.0064 35.9134 24.2256 35.6642 26.0726L37.1507 26.2732ZM36.4481 25.4229H36.4075V26.9229H36.4481V25.4229ZM36.4481 40.5267C35.6745 40.5267 34.9326 40.3978 34.2417 40.161L33.7554 41.58C34.6007 41.8697 35.5069 42.0267 36.4481 42.0267V40.5267ZM34.9149 30.8102L33.2587 40.7472L34.7383 40.9938L36.3945 31.0568L34.9149 30.8102ZM33.2587 40.7472L32.743 43.8419L34.2225 44.0885L34.7383 40.9938L33.2587 40.7472ZM18.8271 10.3192C16.7572 10.3192 15.1131 10.3191 13.7659 10.3669L13.8191 11.8659C15.1337 11.8193 16.7472 11.8192 18.8271 11.8192V10.3192ZM13.7659 10.3669C11.9828 10.4302 10.6597 10.5784 9.49748 10.9487L9.9529 12.3779C10.9161 12.071 12.0743 11.9279 13.8191 11.8659L13.7659 10.3669ZM14.5425 13.5865V11.1164H13.0425V13.5865H14.5425Z" fill="#FAFAFA"/>
</svg>
