<svg width="24" height="30" viewBox="0 0 24 30" fill="none" xmlns="http://www.w3.org/2000/svg">
<path d="M19.225 6.5256L16.7558 7.34128L14.4303 4.76924C13.1981 3.35557 11.5717 1.82571 10.8255 1.3056C8.85326 -0.0689493 7.72287 2.23471 8.43701 5.98248L9.03832 9.09672L5.29114 9.81438C2.93846 10.2357 1.33697 10.9427 1.08784 11.641C0.615611 12.6594 1.02097 13.1005 5.23684 15.801L9.82584 18.7615L9.64868 21.1747C8.93382 30.268 12.2547 32.6618 15.0484 25.0174L16.2358 21.7229L17.8447 22.3687C22.5812 24.3223 23.263 24.4803 23.7836 23.7334C24.081 23.3066 23.3161 21.1088 22.0827 18.9016C19.5141 14.1784 19.4385 13.4915 21.2977 10.8239C24.0866 6.82245 23.344 5.27441 19.225 6.5256ZM12.8066 8.23521C12.6206 8.50197 12.3281 8.69443 12.2215 8.62013C12.0616 8.50868 11.981 8.05617 12.007 7.67795C12.0702 7.24639 12.3256 7.10728 12.5921 7.29303C12.9119 7.51593 13.0297 7.91509 12.8066 8.23521ZM15.7743 12.8402C15.8871 13.4737 15.3727 14.7799 14.6662 15.7936L13.3276 17.7143L12.8118 14.8182C12.3766 12.3746 12.5303 11.9268 13.6 11.6419C15.1061 11.1855 15.5164 11.3922 15.7743 12.8402ZM9.21703 14.2945C9.06335 14.7423 8.39769 14.6747 7.54485 14.0803C6.26558 13.1887 6.23334 13.0077 7.30308 12.7227C8.68146 12.3358 9.55043 13.0208 9.21703 14.2945Z" fill="#FCFCFD"/>
</svg>
