<svg width="57" height="57" viewBox="0 0 57 57" fill="none" xmlns="http://www.w3.org/2000/svg">
<path d="M35.387 10.5747C34.9728 10.5747 34.637 10.9105 34.637 11.3247C34.637 11.7389 34.9728 12.0747 35.387 12.0747V10.5747ZM56.012 12.0747C56.4262 12.0747 56.762 11.7389 56.762 11.3247C56.762 10.9105 56.4262 10.5747 56.012 10.5747V12.0747ZM44.9495 21.6372C44.9495 22.0514 45.2853 22.3872 45.6995 22.3872C46.1137 22.3872 46.4495 22.0514 46.4495 21.6372H44.9495ZM46.4495 1.01221C46.4495 0.597993 46.1137 0.262207 45.6995 0.262207C45.2853 0.262207 44.9495 0.597993 44.9495 1.01221H46.4495ZM11.3245 20.8872C9.71259 20.8872 8.5412 20.8868 7.61388 20.8235C6.6933 20.7607 6.06818 20.6385 5.54309 20.421L4.96906 21.8068C5.70739 22.1126 6.51482 22.252 7.51178 22.3201C8.50199 22.3876 9.73311 22.3872 11.3245 22.3872V20.8872ZM0.262024 11.3247C0.262024 12.9161 0.261618 14.1472 0.32918 15.1375C0.397201 16.1344 0.536616 16.9418 0.842442 17.6802L2.22826 17.1061C2.01076 16.581 1.88851 15.9559 1.8257 15.0353C1.76243 14.108 1.76202 12.9366 1.76202 11.3247H0.262024ZM5.54309 20.421C4.04229 19.7993 2.84991 18.6069 2.22826 17.1061L0.842442 17.6802C1.61633 19.5485 3.10072 21.0329 4.96906 21.8068L5.54309 20.421ZM20.887 11.3247C20.887 12.9366 20.8866 14.108 20.8233 15.0353C20.7605 15.9559 20.6383 16.581 20.4208 17.1061L21.8066 17.6802C22.1124 16.9418 22.2518 16.1344 22.3199 15.1375C22.3874 14.1472 22.387 12.9161 22.387 11.3247H20.887ZM11.3245 22.3872C12.9159 22.3872 14.1471 22.3876 15.1373 22.3201C16.1342 22.252 16.9417 22.1126 17.68 21.8068L17.106 20.421C16.5809 20.6385 15.9557 20.7607 15.0352 20.8235C14.1079 20.8868 12.9365 20.8872 11.3245 20.8872V22.3872ZM20.4208 17.1061C19.7991 18.6069 18.6068 19.7993 17.106 20.421L17.68 21.8068C19.5483 21.0329 21.0327 19.5485 21.8066 17.6802L20.4208 17.1061ZM11.3245 1.76221C12.9365 1.76221 14.1079 1.76261 15.0352 1.82588C15.9557 1.88869 16.5809 2.01094 17.106 2.22844L17.68 0.842626C16.9417 0.536799 16.1342 0.397384 15.1373 0.329363C14.1471 0.261801 12.9159 0.262207 11.3245 0.262207V1.76221ZM22.387 11.3247C22.387 9.73329 22.3874 8.50217 22.3199 7.51196C22.2518 6.51501 22.1124 5.70758 21.8066 4.96925L20.4208 5.54327C20.6383 6.06837 20.7605 6.69349 20.8233 7.61407C20.8866 8.54138 20.887 9.71277 20.887 11.3247H22.387ZM17.106 2.22844C18.6068 2.8501 19.7991 4.04247 20.4208 5.54327L21.8066 4.96925C21.0327 3.10091 19.5483 1.61652 17.68 0.842626L17.106 2.22844ZM11.3245 0.262207C9.73311 0.262207 8.50199 0.261801 7.51178 0.329363C6.51482 0.397384 5.70739 0.536799 4.96906 0.842626L5.54309 2.22844C6.06818 2.01094 6.6933 1.88869 7.61388 1.82588C8.5412 1.76261 9.71259 1.76221 11.3245 1.76221V0.262207ZM1.76202 11.3247C1.76202 9.71277 1.76243 8.54138 1.8257 7.61407C1.88851 6.69349 2.01076 6.06837 2.22826 5.54327L0.842442 4.96925C0.536616 5.70758 0.397201 6.51501 0.32918 7.51196C0.261618 8.50217 0.262024 9.73329 0.262024 11.3247H1.76202ZM4.96906 0.842626C3.10072 1.61652 1.61633 3.10091 0.842442 4.96925L2.22826 5.54327C2.84991 4.04247 4.04229 2.8501 5.54309 2.22844L4.96906 0.842626ZM35.387 12.0747H56.012V10.5747H35.387V12.0747ZM46.4495 21.6372V1.01221H44.9495V21.6372H46.4495ZM11.3245 55.2622C9.71259 55.2622 8.5412 55.2618 7.61388 55.1985C6.6933 55.1357 6.06818 55.0135 5.54309 54.796L4.96906 56.1818C5.70739 56.4876 6.51482 56.627 7.51178 56.6951C8.50199 56.7626 9.73311 56.7622 11.3245 56.7622V55.2622ZM0.262024 45.6997C0.262024 47.2911 0.261618 48.5222 0.32918 49.5125C0.397201 50.5094 0.536616 51.3168 0.842442 52.0552L2.22826 51.4811C2.01076 50.956 1.88851 50.3309 1.8257 49.4103C1.76243 48.483 1.76202 47.3116 1.76202 45.6997H0.262024ZM5.54309 54.796C4.04229 54.1743 2.84991 52.9819 2.22826 51.4811L0.842442 52.0552C1.61633 53.9235 3.10072 55.4079 4.96906 56.1818L5.54309 54.796ZM20.887 45.6997C20.887 47.3116 20.8866 48.483 20.8233 49.4103C20.7605 50.3309 20.6383 50.956 20.4208 51.4811L21.8066 52.0552C22.1124 51.3168 22.2518 50.5094 22.3199 49.5125C22.3874 48.5222 22.387 47.2911 22.387 45.6997H20.887ZM11.3245 56.7622C12.9159 56.7622 14.1471 56.7626 15.1373 56.6951C16.1342 56.627 16.9417 56.4876 17.68 56.1818L17.106 54.796C16.5809 55.0135 15.9557 55.1357 15.0352 55.1985C14.1079 55.2618 12.9365 55.2622 11.3245 55.2622V56.7622ZM20.4208 51.4811C19.7991 52.9819 18.6068 54.1743 17.106 54.796L17.68 56.1818C19.5483 55.4079 21.0327 53.9235 21.8066 52.0552L20.4208 51.4811ZM11.3245 36.1372C12.9365 36.1372 14.1079 36.1376 15.0352 36.2009C15.9557 36.2637 16.5809 36.3859 17.106 36.6034L17.68 35.2176C16.9417 34.9118 16.1342 34.7724 15.1373 34.7044C14.1471 34.6368 12.9159 34.6372 11.3245 34.6372V36.1372ZM22.387 45.6997C22.387 44.1083 22.3874 42.8772 22.3199 41.887C22.2518 40.89 22.1124 40.0826 21.8066 39.3442L20.4208 39.9183C20.6383 40.4434 20.7605 41.0685 20.8233 41.9891C20.8866 42.9164 20.887 44.0878 20.887 45.6997H22.387ZM17.106 36.6034C18.6068 37.2251 19.7991 38.4175 20.4208 39.9183L21.8066 39.3442C21.0327 37.4759 19.5483 35.9915 17.68 35.2176L17.106 36.6034ZM11.3245 34.6372C9.73311 34.6372 8.50199 34.6368 7.51178 34.7044C6.51482 34.7724 5.70739 34.9118 4.96906 35.2176L5.54309 36.6034C6.06818 36.3859 6.6933 36.2637 7.61388 36.2009C8.5412 36.1376 9.71259 36.1372 11.3245 36.1372V34.6372ZM1.76202 45.6997C1.76202 44.0878 1.76243 42.9164 1.8257 41.9891C1.88851 41.0685 2.01076 40.4434 2.22826 39.9183L0.842442 39.3442C0.536616 40.0826 0.397201 40.89 0.32918 41.887C0.261618 42.8772 0.262024 44.1083 0.262024 45.6997H1.76202ZM4.96906 35.2176C3.10072 35.9915 1.61633 37.4759 0.842442 39.3442L2.22826 39.9183C2.84991 38.4175 4.04229 37.2251 5.54309 36.6034L4.96906 35.2176ZM45.6995 55.2622C44.0876 55.2622 42.9162 55.2618 41.9889 55.1985C41.0683 55.1357 40.4432 55.0135 39.9181 54.796L39.3441 56.1818C40.0824 56.4876 40.8898 56.627 41.8868 56.6951C42.877 56.7626 44.1081 56.7622 45.6995 56.7622V55.2622ZM34.637 45.6997C34.637 47.2911 34.6366 48.5222 34.7042 49.5125C34.7722 50.5094 34.9116 51.3168 35.2174 52.0552L36.6033 51.4811C36.3858 50.956 36.2635 50.3309 36.2007 49.4103C36.1374 48.483 36.137 47.3116 36.137 45.6997H34.637ZM39.9181 54.796C38.4173 54.1743 37.2249 52.9819 36.6033 51.4811L35.2174 52.0552C35.9913 53.9235 37.4757 55.4079 39.3441 56.1818L39.9181 54.796ZM55.262 45.6997C55.262 47.3116 55.2616 48.483 55.1983 49.4103C55.1355 50.3309 55.0133 50.956 54.7958 51.4811L56.1816 52.0552C56.4874 51.3168 56.6268 50.5094 56.6949 49.5125C56.7624 48.5222 56.762 47.2911 56.762 45.6997H55.262ZM45.6995 56.7622C47.2909 56.7622 48.5221 56.7626 49.5123 56.6951C50.5092 56.627 51.3167 56.4876 52.055 56.1818L51.481 54.796C50.9559 55.0135 50.3307 55.1357 49.4102 55.1985C48.4828 55.2618 47.3115 55.2622 45.6995 55.2622V56.7622ZM54.7958 51.4811C54.1741 52.9819 52.9818 54.1743 51.481 54.796L52.055 56.1818C53.9233 55.4079 55.4077 53.9235 56.1816 52.0552L54.7958 51.4811ZM45.6995 36.1372C47.3115 36.1372 48.4828 36.1376 49.4102 36.2009C50.3307 36.2637 50.9559 36.3859 51.481 36.6034L52.055 35.2176C51.3167 34.9118 50.5092 34.7724 49.5123 34.7044C48.5221 34.6368 47.2909 34.6372 45.6995 34.6372V36.1372ZM56.762 45.6997C56.762 44.1083 56.7624 42.8772 56.6949 41.887C56.6268 40.89 56.4874 40.0826 56.1816 39.3442L54.7958 39.9183C55.0133 40.4434 55.1355 41.0685 55.1983 41.9891C55.2616 42.9164 55.262 44.0878 55.262 45.6997H56.762ZM51.481 36.6034C52.9818 37.2251 54.1741 38.4175 54.7958 39.9183L56.1816 39.3442C55.4077 37.4759 53.9233 35.9915 52.055 35.2176L51.481 36.6034ZM45.6995 34.6372C44.1081 34.6372 42.877 34.6368 41.8868 34.7044C40.8898 34.7724 40.0824 34.9118 39.3441 35.2176L39.9181 36.6034C40.4432 36.3859 41.0683 36.2637 41.9889 36.2009C42.9162 36.1376 44.0876 36.1372 45.6995 36.1372V34.6372ZM36.137 45.6997C36.137 44.0878 36.1374 42.9164 36.2007 41.9891C36.2635 41.0685 36.3858 40.4434 36.6033 39.9183L35.2174 39.3442C34.9116 40.0826 34.7722 40.89 34.7042 41.887C34.6366 42.8772 34.637 44.1083 34.637 45.6997H36.137ZM39.3441 35.2176C37.4757 35.9915 35.9913 37.4759 35.2174 39.3442L36.6033 39.9183C37.2249 38.4175 38.4173 37.2251 39.9181 36.6034L39.3441 35.2176Z" fill="#FAFAFA"/>
</svg>
